<svg width="1280" height="761" viewBox="0 0 1280 761" fill="none" xmlns="http://www.w3.org/2000/svg">
<line x1="2.18557e-08" y1="750.5" x2="1280" y2="750.5" stroke="#D9D9D9"/>
<line x1="2.18557e-08" y1="700.5" x2="1280" y2="700.5" stroke="#D9D9D9"/>
<line x1="2.18557e-08" y1="650.5" x2="1280" y2="650.5" stroke="#D9D9D9"/>
<line x1="2.18557e-08" y1="600.5" x2="1280" y2="600.5" stroke="#D9D9D9"/>
<line x1="2.18557e-08" y1="550.5" x2="1280" y2="550.5" stroke="#D9D9D9"/>
<line x1="2.18557e-08" y1="500.5" x2="1280" y2="500.5" stroke="#D9D9D9"/>
<line x1="2.18557e-08" y1="450.5" x2="1280" y2="450.5" stroke="#D9D9D9"/>
<line x1="2.18557e-08" y1="400.5" x2="1280" y2="400.5" stroke="#D9D9D9"/>
<line x1="2.18557e-08" y1="350.5" x2="1280" y2="350.5" stroke="#D9D9D9"/>
<line x1="2.18557e-08" y1="300.5" x2="1280" y2="300.5" stroke="#D9D9D9"/>
<line x1="2.18557e-08" y1="250.5" x2="1280" y2="250.5" stroke="#D9D9D9"/>
<line x1="2.18557e-08" y1="200.5" x2="1280" y2="200.5" stroke="#D9D9D9"/>
<line x1="2.18557e-08" y1="150.5" x2="1280" y2="150.5" stroke="#D9D9D9"/>
<line x1="2.18557e-08" y1="100.5" x2="1280" y2="100.5" stroke="#D9D9D9"/>
<line x1="2.18557e-08" y1="50.5" x2="1280" y2="50.5001" stroke="#D9D9D9"/>
<line x1="2.18557e-08" y1="0.5" x2="1280" y2="0.500056" stroke="#D9D9D9"/>
<line x1="40.5" y1="1" x2="40.5" y2="761" stroke="#D9D9D9"/>
<line x1="90.5" y1="1" x2="90.5" y2="761" stroke="#D9D9D9"/>
<line x1="140.5" y1="1" x2="140.5" y2="761" stroke="#D9D9D9"/>
<line x1="190.5" y1="1" x2="190.5" y2="761" stroke="#D9D9D9"/>
<line x1="240.5" y1="1" x2="240.5" y2="761" stroke="#D9D9D9"/>
<line x1="290.5" y1="1" x2="290.5" y2="761" stroke="#D9D9D9"/>
<line x1="340.5" y1="1" x2="340.5" y2="761" stroke="#D9D9D9"/>
<line x1="390.5" y1="1" x2="390.5" y2="761" stroke="#D9D9D9"/>
<line x1="440.5" y1="1" x2="440.5" y2="761" stroke="#D9D9D9"/>
<line x1="490.5" y1="1" x2="490.5" y2="761" stroke="#D9D9D9"/>
<line x1="540.5" y1="1" x2="540.5" y2="761" stroke="#D9D9D9"/>
<line x1="590.5" y1="1" x2="590.5" y2="761" stroke="#D9D9D9"/>
<line x1="640.5" y1="1" x2="640.5" y2="761" stroke="#D9D9D9"/>
<line x1="690.5" y1="1" x2="690.5" y2="761" stroke="#D9D9D9"/>
<line x1="740.5" y1="1" x2="740.5" y2="761" stroke="#D9D9D9"/>
<line x1="790.5" y1="1" x2="790.5" y2="761" stroke="#D9D9D9"/>
<line x1="840.5" y1="1" x2="840.5" y2="761" stroke="#D9D9D9"/>
<line x1="890.5" y1="1" x2="890.5" y2="761" stroke="#D9D9D9"/>
<line x1="940.5" y1="1" x2="940.5" y2="761" stroke="#D9D9D9"/>
<line x1="990.5" y1="1" x2="990.5" y2="761" stroke="#D9D9D9"/>
<line x1="1040.5" y1="1" x2="1040.5" y2="761" stroke="#D9D9D9"/>
<line x1="1090.5" y1="1" x2="1090.5" y2="761" stroke="#D9D9D9"/>
<line x1="1140.5" y1="1" x2="1140.5" y2="761" stroke="#D9D9D9"/>
<line x1="1190.5" y1="1" x2="1190.5" y2="761" stroke="#D9D9D9"/>
<line x1="1240.5" y1="1" x2="1240.5" y2="761" stroke="#D9D9D9"/>
</svg>
