<svg width="25" height="35" viewBox="0 0 25 35" fill="none" xmlns="http://www.w3.org/2000/svg">
<path d="M22.7497 0H1.74998C1.28585 0 0.84074 0.184372 0.512556 0.512556C0.184372 0.84074 3.78924e-09 1.28585 3.78924e-09 1.74998V33.2495C-2.20065e-05 33.5841 0.0958439 33.9116 0.276241 34.1933C0.456638 34.4751 0.714006 34.6992 1.01786 34.8391C1.32171 34.9791 1.65931 35.029 1.99066 34.983C2.32201 34.937 2.63324 34.797 2.88746 34.5795L12.2498 26.7221L21.5072 34.492C21.6707 34.6542 21.8646 34.7825 22.0779 34.8696C22.2911 34.9567 22.5194 35.0008 22.7497 34.9995C22.9792 35.0054 23.207 34.9575 23.4147 34.8595C23.7342 34.7282 24.0078 34.5053 24.2009 34.2188C24.394 33.9323 24.4979 33.595 24.4997 33.2495V1.74998C24.4997 1.28585 24.3153 0.84074 23.9871 0.512556C23.6589 0.184372 23.2138 0 22.7497 0Z" fill="#FFEA2D"/>
</svg>
