<svg width="241" height="45" viewBox="0 0 241 45" fill="none" xmlns="http://www.w3.org/2000/svg">
<path d="M0 5.00684C0 2.24541 2.23858 0.00683594 5 0.00683594C7.76142 0.00683594 10 2.24541 10 5.00684V42.0068C10 43.6637 8.65685 45.0068 7 45.0068H3C1.34315 45.0068 0 43.6637 0 42.0068V5.00684Z" fill="#4577FF"/>
<path d="M17.5 40C18.8807 40 20 41.1193 20 42.5C20 43.8807 18.8807 45 17.5 45L2.5 45C1.11929 45 -1.69631e-07 43.8807 -1.09278e-07 42.5C-4.89257e-08 41.1193 1.11929 40 2.5 40L17.5 40Z" fill="#4B4B4B"/>
<path d="M224 5C224 2.23858 226.239 0 229 0C231.761 0 234 2.23858 234 5V40C234 42.7614 231.761 45 229 45C226.239 45 224 42.7614 224 40V5Z" fill="#10ED00"/>
<path d="M219.5 5C218.119 5 217 3.88071 217 2.5C217 1.11929 218.119 -4.89256e-08 219.5 -1.09278e-07L238.5 -9.39795e-07C239.881 -1.00015e-06 241 1.11929 241 2.5C241 3.88071 239.881 5 238.5 5L219.5 5Z" fill="#4B4B4B"/>
<path d="M174.5 40C175.881 40 177 41.1193 177 42.5C177 43.8807 175.881 45 174.5 45L163.5 45C162.119 45 161 43.8807 161 42.5C161 41.1193 162.119 40 163.5 40L174.5 40Z" fill="#4B4B4B"/>
<path d="M174.5 18C175.881 18 177 19.1193 177 20.5C177 21.8807 175.881 23 174.5 23L165.5 23C164.119 23 163 21.8807 163 20.5C163 19.1193 164.119 18 165.5 18L174.5 18Z" fill="#4B4B4B"/>
<path d="M157 3.5C157 1.567 158.567 0 160.5 0H163.5C165.433 0 167 1.567 167 3.5V40C167 42.7614 164.761 45 162 45C159.239 45 157 42.7614 157 40V3.5Z" fill="#10ED00"/>
<path d="M174.5 -1.09278e-07C175.881 -4.89256e-08 177 1.11929 177 2.5C177 3.88071 175.881 5 174.5 5L159.5 5C158.119 5 157 3.88071 157 2.5C157 1.11929 158.119 -8.25302e-07 159.5 -7.64949e-07L174.5 -1.09278e-07Z" fill="#4B4B4B"/>
<path d="M42.5 40C43.8807 40 45 41.1193 45 42.5C45 43.8807 43.8807 45 42.5 45L31.5 45C30.1193 45 29 43.8807 29 42.5C29 41.1193 30.1193 40 31.5 40L42.5 40Z" fill="#4B4B4B"/>
<path d="M42.5 18C43.8807 18 45 19.1193 45 20.5C45 21.8807 43.8807 23 42.5 23L33.5 23C32.1193 23 31 21.8807 31 20.5C31 19.1193 32.1193 18 33.5 18L42.5 18Z" fill="#4B4B4B"/>
<path d="M25 3.5C25 1.567 26.567 0 28.5 0H32C33.6569 0 35 1.34315 35 3V40C35 42.7614 32.7614 45 30 45C27.2386 45 25 42.7614 25 40V3.5Z" fill="#10ED00"/>
<path d="M42.5 -1.09278e-07C43.8807 -4.89256e-08 45 1.11929 45 2.5C45 3.88071 43.8807 5 42.5 5L27.5 5C26.1193 5 25 3.88071 25 2.5C25 1.11929 26.1193 -8.25302e-07 27.5 -7.64949e-07L42.5 -1.09278e-07Z" fill="#4B4B4B"/>
<path d="M207.5 40C208.881 40 210 41.1193 210 42.5C210 43.8807 208.881 45 207.5 45L188.5 45C187.119 45 186 43.8807 186 42.5C186 41.1193 187.119 40 188.5 40L207.5 40Z" fill="#4B4B4B"/>
<path d="M182 35C182 32.2386 184.239 30 187 30C189.761 30 192 32.2386 192 35V40C192 42.7614 189.761 45 187 45C184.239 45 182 42.7614 182 40V35Z" fill="#4577FF"/>
<path d="M202 5C202 2.23858 204.239 0 207 0C209.761 0 212 2.23858 212 5V10C212 12.7614 209.761 15 207 15C204.239 15 202 12.7614 202 10V5Z" fill="#4B4B4B"/>
<path d="M205.5 18C206.881 18 208 19.1193 208 20.5C208 21.8807 206.881 23 205.5 23L188.5 23C187.119 23 186 21.8807 186 20.5C186 19.1193 187.119 18 188.5 18L205.5 18Z" fill="#4B4B4B"/>
<path d="M192 18C192 20.7614 189.761 23 187 23C184.239 23 182 20.7614 182 18L182 3.5C182 1.567 183.567 -7.37236e-07 185.5 -5.68248e-07L188.5 -3.0598e-07C190.433 -1.36992e-07 192 1.567 192 3.5L192 18Z" fill="#4577FF"/>
<path d="M212 40C212 42.7614 209.761 45 207 45C204.239 45 202 42.7614 202 40L202 23C202 20.2386 204.239 18 207 18C209.761 18 212 20.2386 212 23L212 40Z" fill="#4B4B4B"/>
<path d="M206.5 -1.09278e-07C207.881 -4.89256e-08 209 1.11929 209 2.5C209 3.88071 207.881 5 206.5 5L184.5 5C183.119 5 182 3.88071 182 2.5C182 1.11929 183.119 -1.13128e-06 184.5 -1.07093e-06L206.5 -1.09278e-07Z" fill="#4B4B4B"/>
<path d="M85 3.50684C85 1.57384 86.567 0.00683594 88.5 0.00683594H91.5C93.433 0.00683594 95 1.57384 95 3.50684V40.0068C95 42.7683 92.7614 45.0068 90 45.0068C87.2386 45.0068 85 42.7683 85 40.0068V3.50684Z" fill="#10ED00"/>
<path d="M108.5 -1.09278e-07C109.881 -4.89256e-08 111 1.11929 111 2.5C111 3.88071 109.881 5 108.5 5L87.5 5C86.1193 5 85 3.88071 85 2.5C85 1.11929 86.1193 -1.08757e-06 87.5 -1.02722e-06L108.5 -1.09278e-07Z" fill="#4B4B4B"/>
<path d="M115 18C115 20.7614 112.761 23 110 23C107.239 23 105 20.7614 105 18L105 -8.74228e-07L110 -4.37114e-07C112.761 -1.95703e-07 115 2.23858 115 5L115 18Z" fill="#4B4B4B"/>
<path d="M110 40C110 42.7614 107.761 45 105 45C102.239 45 100 42.7614 100 40L100 25C100 22.2386 102.239 20 105 20C107.761 20 110 22.2386 110 25L110 40Z" fill="#4B4B4B"/>
<path d="M108.5 18C109.881 18 111 19.1193 111 20.5C111 21.8807 109.881 23 108.5 23L97.5 23C96.1193 23 95 21.8807 95 20.5C95 19.1193 96.1193 18 97.5 18L108.5 18Z" fill="#4B4B4B"/>
<path d="M50 3.5C50 1.567 51.567 0 53.5 0H56.5C58.433 0 60 1.567 60 3.5V40C60 42.7614 57.7614 45 55 45C52.2386 45 50 42.7614 50 40V3.5Z" fill="#4577FF"/>
<path d="M70 5C70 2.23858 72.2386 0 75 0C77.7614 0 80 2.23858 80 5V40C80 42.7614 77.7614 45 75 45C72.2386 45 70 42.7614 70 40V5Z" fill="#4B4B4B"/>
<path d="M74.5 -1.09278e-07C75.8807 -4.89256e-08 77 1.11929 77 2.5C77 3.88071 75.8807 5 74.5 5L52.5 5C51.1193 5 50 3.88071 50 2.5C50 1.11929 51.1193 -1.13128e-06 52.5 -1.07093e-06L74.5 -1.09278e-07Z" fill="#4B4B4B"/>
<path d="M71.5 18C72.8807 18 74 19.1193 74 20.5C74 21.8807 72.8807 23 71.5 23L62.5 23C61.1193 23 60 21.8807 60 20.5C60 19.1193 61.1193 18 62.5 18L71.5 18Z" fill="#4B4B4B"/>
<path d="M149.188 40.7531L127.625 2.11908C127.239 1.42816 126.51 1 125.718 1C124.052 1 123 2.79181 123.812 4.24691L145.375 42.8809C145.761 43.5718 146.49 44 147.282 44C148.948 44 150 42.2082 149.188 40.7531Z" fill="#4B4B4B"/>
<path d="M120 5.00684C120 2.24541 122.239 0.00683594 125 0.00683594C127.761 0.00683594 130 2.24541 130 5.00684V40.0068C130 42.7683 127.761 45.0068 125 45.0068C122.239 45.0068 120 42.7683 120 40.0068V5.00684Z" fill="#4577FF"/>
<path d="M142 5C142 2.23858 144.239 0 147 0C149.761 0 152 2.23858 152 5V40C152 42.7614 149.761 45 147 45C144.239 45 142 42.7614 142 40V5Z" fill="#4B4B4B"/>
</svg>
