<svg width="18" height="26" viewBox="0 0 18 26" fill="none" xmlns="http://www.w3.org/2000/svg">
<path d="M4.91216 23.072C4.91267 23.3914 5.00778 23.7042 5.18625 23.9703L6.06017 25.2749C6.20946 25.4979 6.41195 25.6808 6.64962 25.8073C6.8873 25.9338 7.15278 26 7.42244 26H10.5781C10.8477 26 11.1132 25.9338 11.3509 25.8073C11.5886 25.6808 11.7911 25.4979 11.9403 25.2749L12.8143 23.9703C12.9927 23.7042 13.088 23.3917 13.0884 23.072L13.0904 21.1246H4.9096L4.91216 23.072ZM0 8.93735C0 11.1905 0.841193 13.2461 2.2275 14.8167C3.07227 15.7739 4.39364 17.7736 4.89733 19.4605C4.89937 19.4737 4.90091 19.4869 4.90295 19.5001H13.097C13.0991 19.4869 13.1006 19.4742 13.1027 19.4605C13.6064 17.7736 14.9277 15.7739 15.7725 14.8167C17.1588 13.2461 18 11.1905 18 8.93735C18 3.99187 13.9556 -0.0151908 8.97187 4.32941e-05C3.75545 0.0157851 0 4.21327 0 8.93735ZM9 4.87494C6.74437 4.87494 4.90909 6.69744 4.90909 8.93735C4.90909 9.38625 4.54295 9.74984 4.09091 9.74984C3.63886 9.74984 3.27273 9.38625 3.27273 8.93735C3.27273 5.80117 5.84182 3.24997 9 3.24997C9.45205 3.24997 9.81818 3.61356 9.81818 4.06246C9.81818 4.51135 9.45205 4.87494 9 4.87494Z" fill="#FFF500"/>
</svg>
