<svg width="38" height="35" viewBox="0 0 38 35" fill="none" xmlns="http://www.w3.org/2000/svg">
<path d="M34.4449 3.5049C32.4324 1.4919 29.7644 0.268019 26.9259 0.0558275C24.0874 -0.156364 21.267 0.65723 18.9776 2.34865C16.5659 0.554827 13.5641 -0.258577 10.5767 0.0722353C7.58925 0.403048 4.83812 1.8535 2.87729 4.13152C0.916472 6.40953 -0.108391 9.3459 0.00908965 12.3493C0.12657 15.3527 1.37767 18.2 3.51044 20.3179L17.6318 34.4393C17.8081 34.617 18.0177 34.758 18.2487 34.8542C18.4797 34.9505 18.7274 35 18.9776 35C19.2279 35 19.4756 34.9505 19.7066 34.8542C19.9376 34.758 20.1472 34.617 20.3234 34.4393L34.4449 20.3179C35.5493 19.2142 36.4254 17.9037 37.0231 16.4613C37.6209 15.0189 37.9285 13.4728 37.9285 11.9114C37.9285 10.35 37.6209 8.80396 37.0231 7.36153C36.4254 5.9191 35.5493 4.6086 34.4449 3.5049Z" fill="#FF5E5E"/>
</svg>
